# AST/ASF file generated using VICON BodyLanguage
# -----------------------------------------------
:version 1.10
:name VICON
:units
  mass 1.0
  length 0.45
  angle deg
:documentation
   .ast/.asf automatically generated from VICON data using
   VICON BodyBuilder and BodyLanguage model FoxedUp or BRILLIANT.MOD
:root
   order TX TY TZ RX RY RZ
   axis XYZ
   position 0 0 0  
   orientation 0 0 0 
:bonedata
  begin
     id 1 
     name lhipjoint
     direction 0.621036 -0.695554 0.361275 
     length 2.46325 
     axis 0 0 0  XYZ
  end
  begin
     id 2 
     name lfemur
     direction 0.34202 -0.939693 0  
     length 6.54784  
     axis 0 0 20  XYZ
    dof rx ry rz
    limits (-160.0 20.0)
           (-70.0 70.0)
           (-60.0 70.0)
  end
  begin
     id 3 
     name ltibia
     direction 0.34202 -0.939693 0   
     length 7.84737   
     axis 0 0 20   XYZ
    dof rx
    limits (-10.0 170.0)
  end
  begin
     id 4 
     name lfoot
     direction 0.0790693 -0.217241 0.97291   
     length 2.59747   
     axis -90 7.62852e-016 20   XYZ
    dof rx rz
    limits (-45.0 90.0)
           (-70.0 20.0)
  end
  begin
     id 5 
     name ltoes
     direction 1.53572e-011 -4.21898e-011 1   
     length 1.29919   
     axis -90 7.62852e-016 20   XYZ
    dof rx
    limits (-90.0 20.0)
  end
  begin
     id 6 
     name rhipjoint
     direction -0.602353 -0.708375 0.367935   
     length 2.41867  
     axis 0 0 0  XYZ 
  end
  begin
     id 7 
     name rfemur
     direction -0.34202 -0.939693 0   
     length 6.92065   
     axis 0 0 -20   XYZ
    dof rx ry rz
    limits (-160.0 20.0)
           (-70.0 70.0)
           (-70.0 60.0)
  end
  begin
     id 8 
     name rtibia
     direction -0.34202 -0.939693 0   
     length 7.88883   
     axis 0 0 -20   XYZ
    dof rx
    limits (-10.0 170.0)
 end
 begin
     id 9 
     name rfoot
     direction -0.0768692 -0.211196 0.974416   
     length 2.43714  
     axis -90 -7.62852e-016 -20   XYZ
    dof rx rz
    limits (-45.0 90.0)
           (-20.0 70.0)
  end
  begin
     id 10 
     name rtoes
     direction -1.53575e-011 -4.21933e-011 1   
     length 1.22113   
     axis -90 -7.62852e-016 -20   XYZ
    dof rx
    limits (-90.0 20.0)
  end
  begin
     id 11 
     name lowerback
     direction 0.0197937 0.98943 -0.143655   
     length 2.16931   
     axis 0 0 0   XYZ
    dof rx ry rz
    limits (-20.0 45.0)
           (-30.0 30.0)
           (-30.0 30.0)
  end
  begin
     id 12 
     name upperback
     direction -0.00183968 0.999975 0.00684288   
     length 2.17221   
     axis 0 0 0   XYZ
    dof rx ry rz
    limits (-20.0 45.0)
           (-30.0 30.0)
           (-30.0 30.0)
  end
  begin
     id 13 
     name thorax
     direction -0.00950244 0.997208 0.0740685   
     length 2.22549   
     axis 0 0 0   XYZ
    dof rx ry rz
    limits (-20.0 45.0)
           (-30.0 30.0)
           (-30.0 30.0)
  end
  begin
     id 14 
     name lowerneck
     direction 0.0218238 0.996215 0.0841425   
     length 1.77269   
     axis 0 0 0   XYZ
    dof rx ry rz
    limits (-20.0 45.0)
           (-30.0 30.0)
           (-30.0 30.0)
  end
  begin
     id 15 
     name upperneck
     direction -0.00430652 0.994214 -0.107332   
     length 1.76534   
     axis 0 0 0   XYZ
    dof rx ry rz
    limits (-20.0 45.0)
           (-30.0 30.0)
           (-30.0 30.0)
  end
  begin
     id 16
     name head
     direction -0.00328946 0.998959 -0.0454998  
     length 1.82634  
     axis 0 0 0   XYZ
    dof rx ry rz
    limits (-20.0 45.0)
           (-30.0 30.0)
           (-30.0 30.0)
  end
  begin
     id 17 
     name lclavicle
     direction 0.970962 0.239191 0.00450212  
     length 3.84872  
     axis 0 0 0   XYZ
    dof ry rz
    limits (-20.0 10.0)
           (0.0 20.0)
  end
  begin
     id 18 
     name lhumerus
     direction 1 -4.48966e-011 5.74696e-028   
     length 5.22771   
     axis 180 -30 -90   XYZ
    dof rx ry rz
    limits (-60.0 90.0)
           (-90.0 90.0)
           (-90.0 90.0)
  end
  begin
     id 19
     name lradius
     direction 1 -4.4896e-011 4.25109e-027   
     length 3.45251   
     axis 180 -30 -90   XYZ
    dof rx
    limits (-10.0 170.0)
  end
  begin
     id 20
     name lwrist
     direction 1 -4.48971e-011 1.15382e-027   
     length 1.72626   
     axis -5.52449e-016 90 90   XYZ
    dof ry
    limits (-180.0 0.0)
 end
  begin
     id 21 
     name lhand
     direction 1 -4.49034e-011 2.30765e-027   
     length 0.552119   
     axis -1.47248e-015 90 90   XYZ
    dof rx rz
    limits (-90.0 90.0)
           (-45.0 45.0)
  end
  begin
     id 22 
     name lfingers
     direction 1 -4.48951e-011 4.61529e-027   
     length 0.445133   
     axis -2.94495e-015 90 90   XYZ
    dof rx
    limits (0.0 90.0)
  end
  begin
     id 23
     name lthumb
     direction 0.707107 -6.34991e-011 0.707107   
     length 0.639124   
     axis -90 45 2.85299e-015   XYZ
    dof rx rz
    limits (-45.0 45.0)
           (-45.0 45.0)
  end
  begin
     id 24 
     name rclavicle
     direction -0.97424 0.222511 -0.0366699   
     length 3.73439  
     axis 0 0 0   XYZ 
    dof ry rz
    limits (-10.0 20.0)
           (-20.0 0.0)
  end
  begin
     id 25 
     name rhumerus
     direction -1 -4.48956e-011 -4.97258e-028  
     length 5.2398   
     axis 180 30 90   XYZ
    dof rx ry rz
    limits (-90.0 60.0)
           (-90.0 90.0)
           (-90.0 90.0)
  end
  begin
     id 26 
     name rradius
     direction -1 -4.4897e-011 -1.72611e-027   
     length 3.48042   
     axis 180 30 90   XYZ
    dof rx
    limits (-10.0 170.0)
  end
  begin
     id 27 
     name rwrist
     direction -1 -4.48976e-011 1.15382e-027   
     length 1.74021   
     axis -5.52449e-016 -90 -90   XYZ
    dof ry
    limits (-180.0 0.0)
  end
  begin
     id 28
     name rhand
     direction -1 -4.48963e-011 2.30765e-027   
     length 0.618713   
     axis -1.47248e-015 -90 -90   XYZ
    dof rx rz
    limits (-90.0 90.0)
           (-45.0 45.0)
  end
  begin
     id 29
     name rfingers
     direction -1 -4.4888e-011 4.61529e-027   
     length 0.498823   
     axis -2.94495e-015 -90 -90   XYZ
    dof rx
    limits (0.0 90.0)
  end
  begin
     id 30
     name rthumb
     direction -0.707107 -6.34968e-011 0.707107   
     length 0.716213   
     axis -90 -45 -2.85299e-015   XYZ
    dof rx rz
    limits (-45.0 45.0)
           (-45.0 45.0)
  end
:hierarchy
  begin
    root lhipjoint rhipjoint lowerback
    lhipjoint lfemur
    lfemur ltibia
    ltibia lfoot
    lfoot ltoes
    rhipjoint rfemur
    rfemur rtibia
    rtibia rfoot
    rfoot rtoes
    lowerback upperback
    upperback thorax
    thorax lowerneck lclavicle rclavicle
    lowerneck upperneck
    upperneck head
    lclavicle lhumerus
    lhumerus lradius
    lradius lwrist
    lwrist lhand lthumb
    lhand lfingers
    rclavicle rhumerus
    rhumerus rradius
    rradius rwrist
    rwrist rhand rthumb
    rhand rfingers
  end

#!OML:ASF G:\JayActor3\Patient Classification 1\Patient 1\Session 5\male.ASF
:FULLY-SPECIFIED
:DEGREES
212
root -40.7471 14.1283 -4.97568 -152.158 83.7634 -169.455
lowerback 28.0522 -1.64309 1.14124
upperback 4.86559 -1.28593 0.311323
thorax -10.0927 -0.441468 0.117614
lowerneck -4.37449 -1.23685 1.55639
upperneck -16.2098 -0.726822 3.27575
head -4.59291 -0.34968 0.837286
rclavicle 1.11319e-014 1.61016e-014
rhumerus -17.8521 -1.08075 -85.0851
rradius 39.3296
rwrist -2.51611
rhand -20.7325 -7.81366
rfingers 7.12502
rthumb 5.63258 -37.7188
lclavicle 1.11319e-014 1.61016e-014
lhumerus -18.0745 -7.87062 80.4766
lradius 38.4259
lwrist 23.0921
lhand -19.3987 11.3185
lfingers 7.12502
lthumb 6.92032 41.1854
rfemur -68.405 -10.3735 27.4062
rtibia 86.711
rfoot -34.2348 -11.1456
rtoes -2.08519
lfemur -66.8046 5.55114 -20.9481
ltibia 82.3776
lfoot -29.3925 10.9255
ltoes -11.5377
213
root -40.7427 14.1325 -4.97266 -152.39 83.718 -169.667
lowerback 28.0435 -1.65277 1.14276
upperback 4.8722 -1.29641 0.319041
thorax -10.0808 -0.445924 0.128892
lowerneck -4.35988 -1.23602 1.55216
upperneck -16.2205 -0.729673 3.23991
head -4.59967 -0.349601 0.826163
rclavicle 3.97569e-015 -1.59028e-014
rhumerus -17.9101 -1.11934 -85.0891
rradius 39.3907
rwrist -2.57544
rhand -20.6913 -7.82729
rfingers 7.12502
rthumb 5.67244 -37.7314
lclavicle 3.97569e-015 -1.59028e-014
lhumerus -18.0365 -7.95022 80.5034
lradius 38.4733
lwrist 23.1374
lhand -19.374 11.3046
lfingers 7.12502
lthumb 6.94413 41.1707
rfemur -68.3327 -10.3876 27.3964
rtibia 86.6779
rfoot -34.2526 -11.1724
rtoes -2.10581
lfemur -66.7333 5.5214 -20.9391
ltibia 82.3269
lfoot -29.3952 10.9248
ltoes -11.5326
214
root -40.7387 14.1364 -4.9695 -152.612 83.6681 -169.87
lowerback 28.0389 -1.65908 1.14823
upperback 4.87365 -1.30171 0.326475
thorax -10.0767 -0.448259 0.135873
lowerneck -4.32954 -1.2379 1.55324
upperneck -16.2343 -0.735329 3.20901
head -4.61061 -0.351723 0.816029
rclavicle 7.55382e-015 -1.72943e-014
rhumerus -17.9824 -1.17126 -85.0896
rradius 39.4653
rwrist -2.66096
rhand -20.657 -7.84141
rfingers 7.12502
rthumb 5.70547 -37.7446
lclavicle 7.55382e-015 -1.72943e-014
lhumerus -18.0009 -8.05483 80.5345
lradius 38.5129
lwrist 23.1802
lhand -19.3502 11.3
lfingers 7.12502
lthumb 6.96712 41.1654
rfemur -68.2656 -10.3986 27.3899
rtibia 86.6451
rfoot -34.2672 -11.2153
rtoes -2.15587
lfemur -66.6688 5.48298 -20.9244
ltibia 82.2747
lfoot -29.3907 10.9281
ltoes -11.524
215
root -40.7353 14.1397 -4.96603 -152.778 83.616 -170.022
lowerback 28.0373 -1.65988 1.15705
upperback 4.86914 -1.29921 0.334991
thorax -10.0811 -0.447263 0.139502
lowerneck -4.28922 -1.24263 1.56292
upperneck -16.2462 -0.744808 3.17984
head -4.62281 -0.356537 0.805147
rclavicle -2.38542e-015 2.98177e-015
rhumerus -18.0685 -1.22944 -85.0869
rradius 39.5529
rwrist -2.76843
rhand -20.6366 -7.85196
rfingers 7.12502
rthumb 5.72525 -37.7546
lclavicle -2.38542e-015 2.98177e-015
lhumerus -17.9699 -8.18032 80.5703
lradius 38.5508
lwrist 23.223
lhand -19.3232 11.2952
lfingers 7.12502
lthumb 6.99312 41.1597
rfemur -68.209 -10.4014 27.3928
rtibia 86.6125
rfoot -34.2832 -11.2597
rtoes -2.18719
lfemur -66.6181 5.44426 -20.9014
ltibia 82.2239
lfoot -29.3773 10.9306
ltoes -11.5137
216
root -40.7309 14.1438 -4.96335 -153.057 83.5729 -170.282
lowerback 28.0291 -1.65763 1.16319
upperback 4.86428 -1.29499 0.334223
thorax -10.0826 -0.44562 0.133512
lowerneck -4.24184 -1.24986 1.5816
upperneck -16.2509 -0.757814 3.1541
head -4.63367 -0.363987 0.793934
rclavicle -7.55382e-015 5.96354e-015
rhumerus -18.1723 -1.28812 -85.0848
rradius 39.6518
rwrist -2.89804
rhand -20.635 -7.85088
rfingers 7.12502
rthumb 5.72672 -37.7535
lclavicle -7.55382e-015 5.96354e-015
lhumerus -17.947 -8.32214 80.6073
lradius 38.5892
lwrist 23.2602
lhand -19.2872 11.3086
lfingers 7.12502
lthumb 7.02796 41.1719
rfemur -68.139 -10.4193 27.3765
rtibia 86.5775
rfoot -34.301 -11.2923
rtoes -2.22946
lfemur -66.545 5.39639 -20.8952
ltibia 82.1653
lfoot -29.3709 10.9465
ltoes -11.5125
217
root -40.7256 14.1486 -4.9615 -153.409 83.538 -170.61
lowerback 28.012 -1.65724 1.16536
upperback 4.86448 -1.29472 0.329608
thorax -10.0739 -0.445651 0.12668
lowerneck -4.21346 -1.25484 1.59378
upperneck -16.2383 -0.768024 3.13631
head -4.63439 -0.369743 0.786143
rclavicle -1.49089e-015 4.41302e-014
rhumerus -18.2737 -1.32148 -85.0824
rradius 39.7505
rwrist -3.04622
rhand -20.6503 -7.8462
rfingers 7.12502
rthumb 5.71198 -37.7492
lclavicle -1.49089e-015 4.41302e-014
lhumerus -17.9263 -8.44905 80.6463
lradius 38.629
lwrist 23.2887
lhand -19.2427 11.3307
lfingers 7.12502
lthumb 7.07088 41.1926
rfemur -68.0542 -10.453 27.3462
rtibia 86.539
rfoot -34.3218 -11.3081
rtoes -2.26433
lfemur -66.4505 5.34338 -20.9023
ltibia 82.1001
lfoot -29.3739 10.9701
ltoes -11.5102
218
root -40.7197 14.154 -4.96036 -153.771 83.5124 -170.947
lowerback 27.9916 -1.65855 1.16684
upperback 4.86758 -1.29711 0.322154
thorax -10.0603 -0.446876 0.117895
lowerneck -4.20936 -1.25631 1.60352
upperneck -16.2055 -0.774539 3.12198
head -4.62288 -0.373326 0.779428
rclavicle -3.37934e-014 -1.11319e-014
rhumerus -18.3745 -1.32744 -85.082
rradius 39.8503
rwrist -3.20087
rhand -20.6946 -7.81611
rfingers 7.12502
rthumb 5.66924 -37.7203
lclavicle -3.37934e-014 -1.11319e-014
lhumerus -17.9104 -8.56012 80.6845
lradius 38.675
lwrist 23.3119
lhand -19.1881 11.3705
lfingers 7.12502
lthumb 7.12357 41.2306
rfemur -67.9606 -10.4956 27.31
rtibia 86.4963
rfoot -34.3467 -11.3051
rtoes -2.27686
lfemur -66.3428 5.29128 -20.9162
ltibia 82.0281
lfoot -29.3801 11.0035
ltoes -11.5213
219
root -40.7139 14.1596 -4.95963 -154.124 83.4972 -171.272
lowerback 27.976 -1.66218 1.16404
upperback 4.8731 -1.30355 0.313529
thorax -10.0462 -0.449757 0.111744
lowerneck -4.23395 -1.25193 1.60575
upperneck -16.1535 -0.773541 3.11479
head -4.59866 -0.37258 0.775808
rclavicle 8.84592e-015 -4.1546e-014
rhumerus -18.4663 -1.30226 -85.0849
rradius 39.9459
rwrist -3.34599
rhand -20.7391 -7.79673
rfingers 7.12502
rthumb 5.62629 -37.702
lclavicle 8.84592e-015 -4.1546e-014
lhumerus -17.8958 -8.6469 80.7199
lradius 38.7226
lwrist 23.3326
lhand -19.1308 11.4149
lfingers 7.12502
lthumb 7.17888 41.2731
rfemur -67.8646 -10.5397 27.2717
rtibia 86.4511
rfoot -34.3701 -11.2931
rtoes -2.275
lfemur -66.2291 5.24388 -20.9332
ltibia 81.9539
lfoot -29.3917 11.0355
ltoes -11.5216
220
root -40.7076 14.1659 -4.95972 -154.637 83.4972 -171.753
lowerback 27.9611 -1.66537 1.14657
upperback 4.88153 -1.31453 0.29596
thorax -10.0292 -0.454329 0.105578
lowerneck -4.26933 -1.24455 1.60762
upperneck -16.0918 -0.76871 3.11094
head -4.56881 -0.369893 0.773093
rclavicle 2.88238e-015 -2.18663e-014
rhumerus -18.5543 -1.26037 -85.0905
rradius 40.0353
rwrist -3.4683
rhand -20.7814 -7.78596
rfingers 7.12502
rthumb 5.58537 -37.6923
lclavicle 2.88238e-015 -2.18663e-014
lhumerus -17.8871 -8.72564 80.7536
lradius 38.7741
lwrist 23.3551
lhand -19.0734 11.4582
lfingers 7.12502
lthumb 7.23431 41.3145
rfemur -67.7583 -10.5994 27.2075
rtibia 86.4044
rfoot -34.3946 -11.2608
rtoes -2.25964
lfemur -66.0936 5.19374 -20.9768
ltibia 81.8729
lfoot -29.4124 11.0778
ltoes -11.5246
221
root -40.7031 14.1711 -4.9592 -154.904 83.4963 -172.003
lowerback 27.9551 -1.66723 1.13784
upperback 4.88248 -1.32039 0.288509
thorax -10.0251 -0.456868 0.104198
lowerneck -4.31773 -1.23429 1.60677
upperneck -16.0225 -0.7602 3.1095
head -4.5337 -0.365104 0.771392
rclavicle 7.85199e-015 1.59028e-015
rhumerus -18.6326 -1.2014 -85.0956
rradius 40.1177
rwrist -3.55552
rhand -20.8034 -7.79265
rfingers 7.12502
rthumb 5.56416 -37.6996
lclavicle 7.85199e-015 1.59028e-015
lhumerus -17.8799 -8.79352 80.7874
lradius 38.8278
lwrist 23.3841
lhand -19.0219 11.504
lfingers 7.12502
lthumb 7.28406 41.3586
rfemur -67.6853 -10.6338 27.179
rtibia 86.3575
rfoot -34.4114 -11.2406
rtoes -2.22351
lfemur -66.0016 5.15993 -20.9922
ltibia 81.8026
lfoot -29.4172 11.1112
ltoes -11.5292
222
root -40.6992 14.1761 -4.95864 -155.131 83.4982 -172.217
lowerback 27.9556 -1.66647 1.12878
upperback 4.87856 -1.32313 0.281389
thorax -10.0298 -0.45808 0.102464
lowerneck -4.35907 -1.2246 1.61192
upperneck -15.9566 -0.752375 3.1068
head -4.50133 -0.361067 0.768349
rclavicle 1.83876e-014 -7.7526e-015
rhumerus -18.7099 -1.14338 -85.1006
rradius 40.1931
rwrist -3.61539
rhand -20.7987 -7.82096
rfingers 7.12502
rthumb 5.56874 -37.7278
lclavicle 1.83876e-014 -7.7526e-015
lhumerus -17.8786 -8.86723 80.8221
lradius 38.8822
lwrist 23.4149
lhand -18.9784 11.5469
lfingers 7.12502
lthumb 7.32597 41.4001
rfemur -67.6234 -10.6647 27.1575
rtibia 86.3089
rfoot -34.4223 -11.2268
rtoes -2.1964
lfemur -65.9224 5.13013 -21.0044
ltibia 81.7337
lfoot -29.4156 11.1466
ltoes -11.5415
